<?xml version="1.0" encoding="UTF-8"?>
<svg width="589px" height="361px" viewBox="0 0 589 361" version="1.1" xmlns="http://www.w3.org/2000/svg" xmlns:xlink="http://www.w3.org/1999/xlink">
    <!-- Generator: Sketch 50.2 (55047) - http://www.bohemiancoding.com/sketch -->
    <title>blue-bg-top</title>
    <desc>Created with Sketch.</desc>
    <defs></defs>
    <g id="landing" stroke="none" stroke-width="1" fill="none" fill-rule="evenodd" opacity="0.200000003">
        <g id="v3" transform="translate(-846.000000, -924.000000)" fill="#FFFFFF">
            <g id="blue-bg-top" transform="translate(832.000000, 909.000000)">
                <path d="M65.4004531,102.004009 C56.3427333,102.004009 49,94.6158093 49,85.5020043 C49,76.3881994 56.3427333,69 65.4004531,69 C74.4581729,69 81.8009062,76.3881994 81.8009062,85.5020043 C81.8009062,94.6158093 74.4581729,102.004009 65.4004531,102.004009 Z M65.4004531,96.0032798 C71.164458,96.0032798 75.8371051,91.5818662 75.8371051,86.1277738 C75.8371051,80.6736814 71.164458,76.2522678 65.4004531,76.2522678 C59.6364483,76.2522678 54.9638011,80.6736814 54.9638011,86.1277738 C54.9638011,91.5818662 59.6364483,96.0032798 65.4004531,96.0032798 Z" id="Shape" fill-rule="nonzero"></path>
                <path d="M97.7601763,146.663627 L116.819006,146.663627 L107.289591,131.322151 L97.7601763,146.663627 Z M127.579182,152.664355 L87,152.664355 L107.289591,120 L127.579182,152.664355 Z" id="Path" transform="translate(107.289591, 136.332178) rotate(-20.000000) translate(-107.289591, -136.332178) "></path>
                <polygon id="Path" transform="translate(141.036125, 79.123036) rotate(20.000000) translate(-141.036125, -79.123036) " points="141.036125 83.3661937 131.217046 93.2460727 127 89.0029154 136.819079 79.1230364 127 69.2431574 131.217046 65 141.036125 74.879879 150.855205 65 155.07225 69.2431574 145.253171 79.1230364 155.07225 89.0029154 150.855205 93.2460727"></polygon>
                <path d="M220.400453,70.0040086 C211.342733,70.0040086 204,62.6158093 204,53.5020043 C204,44.3881994 211.342733,37 220.400453,37 C229.458173,37 236.800906,44.3881994 236.800906,53.5020043 C236.800906,62.6158093 229.458173,70.0040086 220.400453,70.0040086 Z M220.400453,64.0032798 C226.164458,64.0032798 230.837105,59.5818662 230.837105,54.1277738 C230.837105,48.6736814 226.164458,44.2522678 220.400453,44.2522678 C214.636448,44.2522678 209.963801,48.6736814 209.963801,54.1277738 C209.963801,59.5818662 214.636448,64.0032798 220.400453,64.0032798 Z" id="Shape-Copy" fill-rule="nonzero"></path>
                <path d="M199.760176,145.663627 L218.819006,145.663627 L209.289591,130.322151 L199.760176,145.663627 Z M229.579182,151.664355 L189,151.664355 L209.289591,119 L229.579182,151.664355 Z" id="Path-Copy-3" transform="translate(209.289591, 135.332178) rotate(24.000000) translate(-209.289591, -135.332178) "></path>
                <polygon id="Path-Copy-2" transform="translate(332.036125, 71.123036) rotate(28.000000) translate(-332.036125, -71.123036) " points="332.036125 75.3661937 322.217046 85.2460727 318 81.0029154 327.819079 71.1230364 318 61.2431574 322.217046 57 332.036125 66.879879 341.855205 57 346.07225 61.2431574 336.253171 71.1230364 346.07225 81.0029154 341.855205 85.2460727"></polygon>
                <polygon id="Path-Copy-11" transform="translate(572.023527, 359.059463) rotate(17.000000) translate(-572.023527, -359.059463) " points="572.023527 363.30262 562.204447 373.182499 557.987402 368.939342 567.806481 359.059463 557.987402 349.179584 562.204447 344.936426 572.023527 354.816305 581.842606 344.936426 586.059652 349.179584 576.240572 359.059463 586.059652 368.939342 581.842606 373.182499"></polygon>
                <path d="M553.400453,105.004009 C544.342733,105.004009 537,97.6158093 537,88.5020043 C537,79.3881994 544.342733,72 553.400453,72 C562.458173,72 569.800906,79.3881994 569.800906,88.5020043 C569.800906,97.6158093 562.458173,105.004009 553.400453,105.004009 Z M553.400453,99.0032798 C559.164458,99.0032798 563.837105,94.5818662 563.837105,89.1277738 C563.837105,83.6736814 559.164458,79.2522678 553.400453,79.2522678 C547.636448,79.2522678 542.963801,83.6736814 542.963801,89.1277738 C542.963801,94.5818662 547.636448,99.0032798 553.400453,99.0032798 Z" id="Shape-Copy-2" fill-rule="nonzero"></path>
                <path d="M16.7601763,36.6636265 L35.8190057,36.6636265 L26.289591,21.3221512 L16.7601763,36.6636265 Z M46.5791819,42.6643554 L6,42.6643554 L26.289591,10 L46.5791819,42.6643554 Z" id="Path-Copy-5" transform="translate(26.289591, 26.332178) rotate(-48.000000) translate(-26.289591, -26.332178) "></path>
                <polygon id="Path-Copy-4" points="481.036125 57.3661937 471.217046 67.2460727 467 63.0029154 476.819079 53.1230364 467 43.2431574 471.217046 39 481.036125 48.879879 490.855205 39 495.07225 43.2431574 485.253171 53.1230364 495.07225 63.0029154 490.855205 67.2460727"></polygon>
                <path d="M291.400453,143.004009 C282.342733,143.004009 275,135.615809 275,126.502004 C275,117.388199 282.342733,110 291.400453,110 C300.458173,110 307.800906,117.388199 307.800906,126.502004 C307.800906,135.615809 300.458173,143.004009 291.400453,143.004009 Z M291.400453,137.00328 C297.164458,137.00328 301.837105,132.581866 301.837105,127.127774 C301.837105,121.673681 297.164458,117.252268 291.400453,117.252268 C285.636448,117.252268 280.963801,121.673681 280.963801,127.127774 C280.963801,132.581866 285.636448,137.00328 291.400453,137.00328 Z" id="Shape-Copy-3" fill-rule="nonzero"></path>
                <path d="M317.760176,216.663627 L336.819006,216.663627 L327.289591,201.322151 L317.760176,216.663627 Z M347.579182,222.664355 L307,222.664355 L327.289591,190 L347.579182,222.664355 Z" id="Path-Copy-7" transform="translate(327.289591, 206.332178) rotate(-12.000000) translate(-327.289591, -206.332178) "></path>
                <polygon id="Path-Copy-6" transform="translate(364.665746, 149.732689) rotate(-12.000000) translate(-364.665746, -149.732689) " points="364.665746 153.975846 354.846667 163.855725 350.629621 159.612568 360.448701 149.732689 350.629621 139.85281 354.846667 135.609652 364.665746 145.489531 374.484826 135.609652 378.701871 139.85281 368.882792 149.732689 378.701871 159.612568 374.484826 163.855725"></polygon>
                <path d="M444.400453,219.004009 C435.342733,219.004009 428,211.615809 428,202.502004 C428,193.388199 435.342733,186 444.400453,186 C453.458173,186 460.800906,193.388199 460.800906,202.502004 C460.800906,211.615809 453.458173,219.004009 444.400453,219.004009 Z M444.400453,213.00328 C450.164458,213.00328 454.837105,208.581866 454.837105,203.127774 C454.837105,197.673681 450.164458,193.252268 444.400453,193.252268 C438.636448,193.252268 433.963801,197.673681 433.963801,203.127774 C433.963801,208.581866 438.636448,213.00328 444.400453,213.00328 Z" id="Shape-Copy-4" fill-rule="nonzero"></path>
                <path d="M586.400453,257.004009 C577.342733,257.004009 570,249.615809 570,240.502004 C570,231.388199 577.342733,224 586.400453,224 C595.458173,224 602.800906,231.388199 602.800906,240.502004 C602.800906,249.615809 595.458173,257.004009 586.400453,257.004009 Z M586.400453,251.00328 C592.164458,251.00328 596.837105,246.581866 596.837105,241.127774 C596.837105,235.673681 592.164458,231.252268 586.400453,231.252268 C580.636448,231.252268 575.963801,235.673681 575.963801,241.127774 C575.963801,246.581866 580.636448,251.00328 586.400453,251.00328 Z" id="Shape-Copy-5" fill-rule="nonzero"></path>
                <path d="M437.760176,124.663627 L456.819006,124.663627 L447.289591,109.322151 L437.760176,124.663627 Z M467.579182,130.664355 L427,130.664355 L447.289591,98 L467.579182,130.664355 Z" id="Path-Copy-9" transform="translate(447.289591, 114.332178) rotate(-9.000000) translate(-447.289591, -114.332178) "></path>
                <path d="M505.065293,285.636542 L524.124123,285.636542 L514.594708,270.295066 L505.065293,285.636542 Z M534.884299,291.63727 L494.305117,291.63727 L514.594708,258.972915 L534.884299,291.63727 Z" id="Path-Copy-10" transform="translate(514.594708, 275.305093) rotate(43.000000) translate(-514.594708, -275.305093) "></path>
                <polygon id="Path-Copy-8" transform="translate(524.036125, 151.123036) rotate(-16.000000) translate(-524.036125, -151.123036) " points="524.036125 155.366194 514.217046 165.246073 510 161.002915 519.819079 151.123036 510 141.243157 514.217046 137 524.036125 146.879879 533.855205 137 538.07225 141.243157 528.253171 151.123036 538.07225 161.002915 533.855205 165.246073"></polygon>
            </g>
        </g>
    </g>
</svg>