<?xml version="1.0" encoding="UTF-8"?>
<svg width="1399px" height="343px" viewBox="0 0 1399 343" version="1.1" xmlns="http://www.w3.org/2000/svg" xmlns:xlink="http://www.w3.org/1999/xlink">
    <!-- Generator: Sketch 50.2 (55047) - http://www.bohemiancoding.com/sketch -->
    <title>blue-cta-bg</title>
    <desc>Created with Sketch.</desc>
    <defs></defs>
    <g id="landing" stroke="none" stroke-width="1" fill="none" fill-rule="evenodd" opacity="0.200000003">
        <g id="v3" transform="translate(0.000000, -2257.000000)" fill="#FFFFFF">
            <g id="blue-cta-bg" transform="translate(0.000000, 2256.000000)">
                <g id="Group-7-Copy" transform="translate(301.500000, 246.500000) scale(-1, -1) translate(-301.500000, -246.500000) translate(0.000000, 77.000000)">
                    <path d="M50.4004531,131.004009 C41.3427333,131.004009 34,123.615809 34,114.502004 C34,105.388199 41.3427333,98 50.4004531,98 C59.4581729,98 66.8009062,105.388199 66.8009062,114.502004 C66.8009062,123.615809 59.4581729,131.004009 50.4004531,131.004009 Z M50.4004531,125.00328 C56.164458,125.00328 60.8371051,120.581866 60.8371051,115.127774 C60.8371051,109.673681 56.164458,105.252268 50.4004531,105.252268 C44.6364483,105.252268 39.9638011,109.673681 39.9638011,115.127774 C39.9638011,120.581866 44.6364483,125.00328 50.4004531,125.00328 Z" id="Shape" fill-rule="nonzero"></path>
                    <path d="M155.149259,169.027126 L174.208089,169.027126 L164.678674,153.685651 L155.149259,169.027126 Z M184.968265,175.027855 L144.389083,175.027855 L164.678674,142.3635 L184.968265,175.027855 Z" id="Path" transform="translate(164.678674, 158.695677) rotate(-20.000000) translate(-164.678674, -158.695677) "></path>
                    <path d="M291.400453,143.004009 C282.342733,143.004009 275,135.615809 275,126.502004 C275,117.388199 282.342733,110 291.400453,110 C300.458173,110 307.800906,117.388199 307.800906,126.502004 C307.800906,135.615809 300.458173,143.004009 291.400453,143.004009 Z M291.400453,137.00328 C297.164458,137.00328 301.837105,132.581866 301.837105,127.127774 C301.837105,121.673681 297.164458,117.252268 291.400453,117.252268 C285.636448,117.252268 280.963801,121.673681 280.963801,127.127774 C280.963801,132.581866 285.636448,137.00328 291.400453,137.00328 Z" id="Shape-Copy-3" fill-rule="nonzero"></path>
                    <path d="M317.760176,216.663627 L336.819006,216.663627 L327.289591,201.322151 L317.760176,216.663627 Z M347.579182,222.664355 L307,222.664355 L327.289591,190 L347.579182,222.664355 Z" id="Path-Copy-7" transform="translate(327.289591, 206.332178) rotate(-12.000000) translate(-327.289591, -206.332178) "></path>
                    <polygon id="Path-Copy-6" transform="translate(401.085902, 117.881149) rotate(-12.000000) translate(-401.085902, -117.881149) " points="401.085902 122.124307 391.266823 132.004186 387.049777 127.761028 396.868857 117.881149 387.049777 108.00127 391.266823 103.758113 401.085902 113.637992 410.904982 103.758113 415.122027 108.00127 405.302948 117.881149 415.122027 127.761028 410.904982 132.004186"></polygon>
                    <path d="M444.400453,219.004009 C435.342733,219.004009 428,211.615809 428,202.502004 C428,193.388199 435.342733,186 444.400453,186 C453.458173,186 460.800906,193.388199 460.800906,202.502004 C460.800906,211.615809 453.458173,219.004009 444.400453,219.004009 Z M444.400453,213.00328 C450.164458,213.00328 454.837105,208.581866 454.837105,203.127774 C454.837105,197.673681 450.164458,193.252268 444.400453,193.252268 C438.636448,193.252268 433.963801,197.673681 433.963801,203.127774 C433.963801,208.581866 438.636448,213.00328 444.400453,213.00328 Z" id="Shape-Copy-4" fill-rule="nonzero"></path>
                    <path d="M586.400453,257.004009 C577.342733,257.004009 570,249.615809 570,240.502004 C570,231.388199 577.342733,224 586.400453,224 C595.458173,224 602.800906,231.388199 602.800906,240.502004 C602.800906,249.615809 595.458173,257.004009 586.400453,257.004009 Z M586.400453,251.00328 C592.164458,251.00328 596.837105,246.581866 596.837105,241.127774 C596.837105,235.673681 592.164458,231.252268 586.400453,231.252268 C580.636448,231.252268 575.963801,235.673681 575.963801,241.127774 C575.963801,246.581866 580.636448,251.00328 586.400453,251.00328 Z" id="Shape-Copy-5" fill-rule="nonzero"></path>
                    <path d="M461.205198,323.06964 L480.264028,323.06964 L470.734613,307.728164 L461.205198,323.06964 Z M491.024204,329.070369 L450.445022,329.070369 L470.734613,296.406013 L491.024204,329.070369 Z" id="Path-Copy-10" transform="translate(470.734613, 312.738191) rotate(43.000000) translate(-470.734613, -312.738191) "></path>
                    <polygon id="Path-Copy-8" transform="translate(542.373271, 172.864122) rotate(-16.000000) translate(-542.373271, -172.864122) " points="542.373271 177.10728 532.554192 186.987159 528.337146 182.744001 538.156226 172.864122 528.337146 162.984243 532.554192 158.741086 542.373271 168.620965 552.192351 158.741086 556.409396 162.984243 546.590317 172.864122 556.409396 182.744001 552.192351 186.987159"></polygon>
                </g>
                <g id="Group-7-Copy-2" transform="translate(713.000000, 208.000000) scale(1, -1) translate(-713.000000, -208.000000) translate(26.000000, 0.000000)">
                    <path d="M686.122498,156.668987 L705.181327,156.668987 L695.651913,141.327512 L686.122498,156.668987 Z M715.941504,162.669716 L675.362322,162.669716 L695.651913,130.005361 L715.941504,162.669716 Z" id="Path" transform="translate(695.651913, 146.337538) rotate(-20.000000) translate(-695.651913, -146.337538) "></path>
                    <path d="M817.648944,114.265979 L836.707773,114.265979 L827.178359,98.9245037 L817.648944,114.265979 Z M847.46795,120.266708 L806.888768,120.266708 L827.178359,87.6023525 L847.46795,120.266708 Z" id="Path-Copy-3" transform="translate(827.178359, 103.934530) rotate(24.000000) translate(-827.178359, -103.934530) "></path>
                    <polygon id="Path-Copy-2" transform="translate(1079.023527, 89.407012) rotate(28.000000) translate(-1079.023527, -89.407012) " points="1079.02353 93.6501692 1069.20445 103.530048 1064.9874 99.2868909 1074.80648 89.4070119 1064.9874 79.5271329 1069.20445 75.2839755 1079.02353 85.1638545 1088.84261 75.2839755 1093.05965 79.5271329 1083.24057 89.4070119 1093.05965 99.2868909 1088.84261 103.530048"></polygon>
                    <polygon id="Path-Copy-11" transform="translate(1303.551989, 397.874630) rotate(17.000000) translate(-1303.551989, -397.874630) " points="1303.55199 402.117788 1293.73291 411.997667 1289.51586 407.754509 1299.33494 397.87463 1289.51586 387.994751 1293.73291 383.751594 1303.55199 393.631473 1313.37107 383.751594 1317.58811 387.994751 1307.76903 397.87463 1317.58811 407.754509 1313.37107 411.997667"></polygon>
                    <path d="M978.400453,180.004009 C969.342733,180.004009 962,172.615809 962,163.502004 C962,154.388199 969.342733,147 978.400453,147 C987.458173,147 994.800906,154.388199 994.800906,163.502004 C994.800906,172.615809 987.458173,180.004009 978.400453,180.004009 Z M978.400453,174.00328 C984.164458,174.00328 988.837105,169.581866 988.837105,164.127774 C988.837105,158.673681 984.164458,154.252268 978.400453,154.252268 C972.636448,154.252268 967.963801,158.673681 967.963801,164.127774 C967.963801,169.581866 972.636448,174.00328 978.400453,174.00328 Z" id="Shape-Copy-3" fill-rule="nonzero"></path>
                    <polygon id="Path-Copy-6" transform="translate(1125.665746, 185.000921) rotate(-12.000000) translate(-1125.665746, -185.000921) " points="1125.66575 189.244078 1115.84667 199.123957 1111.62962 194.8808 1121.4487 185.000921 1111.62962 175.121042 1115.84667 170.877885 1125.66575 180.757764 1135.48483 170.877885 1139.70187 175.121042 1129.88279 185.000921 1139.70187 194.8808 1135.48483 199.123957"></polygon>
                    <path d="M1224.40045,278.004009 C1215.34273,278.004009 1208,270.615809 1208,261.502004 C1208,252.388199 1215.34273,245 1224.40045,245 C1233.45817,245 1240.80091,252.388199 1240.80091,261.502004 C1240.80091,270.615809 1233.45817,278.004009 1224.40045,278.004009 Z M1224.40045,272.00328 C1230.16446,272.00328 1234.83711,267.581866 1234.83711,262.127774 C1234.83711,256.673681 1230.16446,252.252268 1224.40045,252.252268 C1218.63645,252.252268 1213.9638,256.673681 1213.9638,262.127774 C1213.9638,267.581866 1218.63645,272.00328 1224.40045,272.00328 Z" id="Shape-Copy-4" fill-rule="nonzero"></path>
                    <path d="M1341.40045,309.004009 C1332.34273,309.004009 1325,301.615809 1325,292.502004 C1325,283.388199 1332.34273,276 1341.40045,276 C1350.45817,276 1357.80091,283.388199 1357.80091,292.502004 C1357.80091,301.615809 1350.45817,309.004009 1341.40045,309.004009 Z M1341.40045,303.00328 C1347.16446,303.00328 1351.83711,298.581866 1351.83711,293.127774 C1351.83711,287.673681 1347.16446,283.252268 1341.40045,283.252268 C1335.63645,283.252268 1330.9638,287.673681 1330.9638,293.127774 C1330.9638,298.581866 1335.63645,303.00328 1341.40045,303.00328 Z" id="Shape-Copy-5" fill-rule="nonzero"></path>
                    <path d="M1191.76018,124.663627 L1210.81901,124.663627 L1201.28959,109.322151 L1191.76018,124.663627 Z M1221.57918,130.664355 L1181,130.664355 L1201.28959,98 L1221.57918,130.664355 Z" id="Path-Copy-9" transform="translate(1201.289591, 114.332178) rotate(-9.000000) translate(-1201.289591, -114.332178) "></path>
                    <polygon id="Path-Copy-8" transform="translate(1356.385226, 176.135807) rotate(-16.000000) translate(-1356.385226, -176.135807) " points="1356.38523 180.378965 1346.56615 190.258844 1342.3491 186.015686 1352.16818 176.135807 1342.3491 166.255928 1346.56615 162.012771 1356.38523 171.89265 1366.20431 162.012771 1370.42135 166.255928 1360.60227 176.135807 1370.42135 186.015686 1366.20431 190.258844"></polygon>
                    <polygon id="Path-Copy-12" transform="translate(17.385226, 380.429816) rotate(-16.000000) translate(-17.385226, -380.429816) " points="17.3852257 384.672973 7.56614625 394.552852 3.34910072 390.309695 13.1681802 380.429816 3.34910072 370.549937 7.56614625 366.30678 17.3852257 376.186659 27.2043052 366.30678 31.4213508 370.549937 21.6022713 380.429816 31.4213508 390.309695 27.2043052 394.552852"></polygon>
                </g>
            </g>
        </g>
    </g>
</svg>