<?xml version="1.0" encoding="UTF-8"?>
<svg width="178px" height="64px" viewBox="0 0 178 64" version="1.1" xmlns="http://www.w3.org/2000/svg" xmlns:xlink="http://www.w3.org/1999/xlink">
    <!-- Generator: Sketch 50.2 (55047) - http://www.bohemiancoding.com/sketch -->
    <title>Logo</title>
    <desc>Created with Sketch.</desc>
    <defs>
        <linearGradient x1="50%" y1="0%" x2="50%" y2="100%" id="linearGradient-1">
            <stop stop-color="#000000" stop-opacity="0" offset="0%"></stop>
            <stop stop-color="#000000" offset="100%"></stop>
        </linearGradient>
        <path d="M7.60785271,55.0895787 L7.60785271,55.1332303 C8.73081745,55.7246014 9.58281667,56.5479509 9.65911585,58.5490872 C9.85042814,63.5667293 4.22748022,66.1662597 1.34443162,61.7253983 C-0.256220097,59.259858 -0.300040226,56.5443477 0.545587973,50.78072 L1.38636271,42.8232447 C1.40681545,42.4551392 1.43417262,42.0799775 1.46843421,41.6977596 C2.65289206,10.809751 11.0939908,10.9178515 23.436766,11.7623345 C30.4291016,12.2407447 31.906152,15.7581201 31.3629045,19.2113268 C30.8703817,22.3420967 29.1865472,25.5158098 19.7144308,24.5438638 C10.2342281,23.5710879 5.61250484,29.2300862 3.37203084,35.4288109 C5.88787237,29.5939236 10.7655625,28.6447073 17.61046,29.1220376 C22.7164328,29.4781037 22.7102556,30.9354169 21.7954774,33.2237751 C20.9367525,35.3719135 19.1803995,36.2531419 15.5920666,35.9062402 C7.12189795,35.0873874 3.72660489,38.9930463 2.38426305,41.8600443 L2.38993826,41.8601867 C1.79946597,43.1220901 1.46893393,44.5346105 1.46893393,46.0258065 C1.46893393,50.168303 4.01968674,53.7036502 7.60785271,55.0895787 Z M31.1810724,10.4971138 C28.3367485,10.4971138 26.4894174,8.64403828 26.4894174,5.74534036 C26.4894174,2.84664244 28.3367485,0 31.1810724,0 C34.0253963,0 36.8627451,1.62715728 36.8627451,4.5258552 C36.8627451,7.42455312 34.0253963,10.4971138 31.1810724,10.4971138 Z M17.2999371,9.10977057 C11.4325182,9.77749209 7,13.3233419 7,10.424644 C7,7.52594606 17.2420876,2.77353639 20.2870009,2.46261867 C23.3319142,2.15170095 24.9067383,1.43707353 24.9067383,5.15087891 C24.9067383,8.86468429 23.167356,8.44204905 17.2999371,9.10977057 Z" id="path-2"></path>
        <linearGradient x1="53.3235431%" y1="100%" x2="53.3235431%" y2="0%" id="linearGradient-3">
            <stop stop-color="#FFFFFF" stop-opacity="0" offset="0%"></stop>
            <stop stop-color="#FFFFFF" stop-opacity="0.3" offset="100%"></stop>
        </linearGradient>
        <path d="M52.42,34.95 L45.91,34.95 L45.91,41.97 L42.4,41.97 L42.4,24.48 L54.22,24.48 L54.22,27.69 L45.91,27.69 L45.91,31.71 L52.42,31.71 L52.42,34.95 Z M64.5,24.27 C71.13,24.27 73.08,29.64 73.08,33.24 C73.08,36.96 71.13,42.24 64.5,42.24 C57.87,42.24 55.92,36.96 55.92,33.24 C55.92,29.64 57.87,24.27 64.5,24.27 Z M64.5,38.97 C68.91,38.97 69.54,34.68 69.54,33.24 C69.54,31.8 68.91,27.54 64.5,27.54 C60.06,27.54 59.43,31.8 59.43,33.24 C59.43,34.68 60.06,38.97 64.5,38.97 Z M84.26,24.27 C90.89,24.27 92.84,29.64 92.84,33.24 C92.84,36.96 90.89,42.24 84.26,42.24 C77.63,42.24 75.68,36.96 75.68,33.24 C75.68,29.64 77.63,24.27 84.26,24.27 Z M84.26,38.97 C88.67,38.97 89.3,34.68 89.3,33.24 C89.3,31.8 88.67,27.54 84.26,27.54 C79.82,27.54 79.19,31.8 79.19,33.24 C79.19,34.68 79.82,38.97 84.26,38.97 Z M98.35,42 L98.35,27.66 L93.64,27.66 L93.64,24.45 L106.66,24.45 L106.66,27.66 L101.86,27.66 L101.86,42 L98.35,42 Z M112.77,35.82 L112.77,42 L109.26,42 L109.26,24.48 L115.86,24.48 C120.66,24.48 122.07,27.81 122.07,30.09 C122.07,33.57 119.07,35.82 116.22,35.82 L112.77,35.82 Z M112.77,32.55 L116.1,32.55 C118.11,32.55 118.59,30.81 118.59,30.09 C118.59,29.25 118.11,27.66 116.01,27.66 L112.77,27.66 L112.77,32.55 Z M128.78,35.82 L128.78,42 L125.27,42 L125.27,24.48 L131.87,24.48 C136.67,24.48 138.08,27.81 138.08,30.09 C138.08,32.61 136.52,34.47 134.57,35.34 L137.69,42 L133.88,42 L130.97,35.82 L128.78,35.82 Z M128.78,32.55 L132.11,32.55 C134.12,32.55 134.6,30.81 134.6,30.09 C134.6,29.25 134.12,27.66 132.02,27.66 L128.78,27.66 L128.78,32.55 Z M143.92,24.45 L143.92,42 L140.38,42 L140.38,24.45 L143.92,24.45 Z M147.72,24.42 L147.96,24.33 L158.49,34.11 L158.49,24.48 L162.03,24.48 L162.03,42.03 L161.82,42.09 L151.26,32.22 L151.26,42 L147.72,42 L147.72,24.42 Z M169.34,42 L169.34,27.66 L164.63,27.66 L164.63,24.45 L177.65,24.45 L177.65,27.66 L172.85,27.66 L172.85,42 L169.34,42 Z" id="path-4"></path>
    </defs>
    <g id="landing" stroke="none" stroke-width="1" fill="none" fill-rule="evenodd">
        <g id="v3" transform="translate(-251.000000, -24.000000)">
            <g id="hero" transform="translate(-1.000000, -2.000000)">
                <g id="logo" transform="translate(252.000000, 26.000000)">
                    <g id="Logo">
                        <g id="logo">
                            <g id="Logo-Copy-11">
                                <g id="Group">
                                    <g id="Combined-Shape">
                                        <use fill="#26A6DF" xlink:href="#path-2"></use>
                                        <use fill-opacity="0.1" fill="url(#linearGradient-1)" xlink:href="#path-2"></use>
                                    </g>
                                </g>
                            </g>
                            <g id="footprint">
                                <use fill="#000000" xlink:href="#path-4"></use>
                                <use fill="url(#linearGradient-3)" xlink:href="#path-4"></use>
                            </g>
                            <path d="M46.17,52.5 C46.76,52.8 47.02,53.56 47.02,54.02 C47.02,54.85 46.46,56 44.59,56 L42,56 L42,49 L44.59,49 C46.46,49 47.02,50.16 47.02,50.99 C47.02,51.52 46.76,52.14 46.17,52.5 Z M44.73,52.09 C45.8,52.07 45.97,51.34 45.97,50.99 C45.97,50.72 45.8,49.89 44.69,49.89 L43.01,49.89 L43.01,52.09 L44.73,52.09 Z M44.69,55.1 C45.8,55.1 45.97,54.29 45.97,54.02 C45.97,53.62 45.8,53.02 44.73,53 L43.01,53 L43.01,55.1 L44.69,55.1 Z M48.6766667,51 L50.1666667,54.61 L51.6166667,51 L52.7366667,51 L49.7766667,57.99 L48.7166667,57.99 L49.6366667,55.8 L47.5866667,51 L48.6766667,51 Z M60.85,56.01 L60.07,54.15 L57.56,54.15 L56.79,56.01 L55.67,56.01 L58.78,48.94 L58.85,48.94 L61.97,56.01 L60.85,56.01 Z M58.82,51.13 L57.93,53.26 L59.7,53.26 L58.82,51.13 Z M64.9666666,56.08 C64.4766666,56.08 64.0666666,55.98 63.7366666,55.81 L63.7366666,58 L62.7366666,58 L62.7366666,51 L63.3366666,51 L63.5066666,51.51 C63.9366666,51.1 64.4766666,50.92 65.0166666,50.92 C66.8766666,50.92 67.4566666,52.43 67.4566666,53.5 C67.4566666,54.55 66.8866666,56.08 64.9666666,56.08 Z M64.9666666,51.75 C64.3366666,51.75 63.9466666,52.07 63.7366666,52.42 L63.7366666,54.9 C64.0266666,55.12 64.4966666,55.25 64.8866666,55.25 C66.2066666,55.25 66.4666666,54.02 66.4666666,53.5 C66.4666666,53.06 66.2766666,51.75 64.9666666,51.75 Z M70.7533333,56.08 C70.2633333,56.08 69.8533333,55.98 69.5233333,55.81 L69.5233333,58 L68.5233333,58 L68.5233333,51 L69.1233333,51 L69.2933333,51.51 C69.7233333,51.1 70.2633333,50.92 70.8033333,50.92 C72.6633333,50.92 73.2433333,52.43 73.2433333,53.5 C73.2433333,54.55 72.6733333,56.08 70.7533333,56.08 Z M70.7533333,51.75 C70.1233333,51.75 69.7333333,52.07 69.5233333,52.42 L69.5233333,54.9 C69.8133333,55.12 70.2833333,55.25 70.6733333,55.25 C71.9933333,55.25 72.2533333,54.02 72.2533333,53.5 C72.2533333,53.06 72.0633333,51.75 70.7533333,51.75 Z M75.1999999,50.74 C75.1999999,52.35 79.1299999,51.43 79.1299999,54.18 C79.1299999,55.25 78.0699999,56.08 76.6499999,56.08 C75.6099999,56.08 74.8899999,55.87 74.1099999,55.46 L74.4999999,54.65 C75.1199999,54.95 75.8099999,55.17 76.5699999,55.17 C77.3499999,55.17 78.0599999,54.78 78.0599999,54.17 C78.0599999,52.27 74.1699999,53.33 74.1699999,50.82 C74.1699999,49.61 75.0799999,48.89 76.3499999,48.89 C76.7599999,48.89 77.7099999,48.96 78.7499999,49.45 L78.3699999,50.3 C77.8999999,50.11 77.0399999,49.85 76.5799999,49.85 C75.8399999,49.85 75.2499999,50 75.1999999,50.74 Z M81.1966666,56 L80.1966666,56 L80.1966666,49 L81.1966666,49 L81.1966666,51.35 C81.4866666,51.1 82.0266666,50.92 82.4766666,50.92 C84.3366666,50.92 84.5866666,52.25 84.5866666,53.42 L84.5866666,56 L83.5966666,56 L83.5966666,53.42 C83.5666666,53.04 83.7366666,51.83 82.4266666,51.75 C81.8066666,51.71 81.3566666,52.06 81.1966666,52.38 L81.1966666,56 Z M87.3733333,50.93 C89.2733333,50.82 89.4133333,51.96 89.4133333,53.01 L89.4133333,56 L88.8133333,56 L88.6533333,55.48 C88.2433333,55.89 87.6633333,56.09 87.2133333,56.09 C85.6933333,56.09 85.4533333,55.04 85.4533333,54.58 C85.4533333,52.87 87.2533333,52.92 88.4133333,53.05 L88.4133333,52.94 C88.4133333,51.92 88.1033333,51.76 87.4333333,51.76 C87.1633333,51.76 86.5333333,51.88 86.0733333,52.08 L85.7833333,51.39 C86.3033333,51.12 86.8333333,50.96 87.3733333,50.93 Z M88.4133333,54.59 L88.4133333,53.82 C87.9233333,53.76 86.3833333,53.57 86.3833333,54.5 C86.3833333,55.03 86.7833333,55.3 87.2433333,55.3 C87.8133333,55.3 88.2433333,54.89 88.4133333,54.59 Z M93.4399999,50.97 L93.2799999,51.84 C93.1499999,51.81 93.0199999,51.8 92.8899999,51.8 C92.3199999,51.8 91.8199999,52.07 91.6799999,52.47 L91.6799999,56 L90.6799999,56 L90.6799999,51 L91.2799999,51 L91.4499999,51.51 C91.8799999,51.1 92.4199999,50.92 92.9599999,50.92 C93.1199999,50.92 93.1899999,50.93 93.4399999,50.97 Z M96.2366666,56.08 C95.7466666,56.08 95.3366666,55.98 95.0066666,55.81 L95.0066666,58 L94.0066666,58 L94.0066666,51 L94.6066666,51 L94.7766666,51.51 C95.2066666,51.1 95.7466666,50.92 96.2866666,50.92 C98.1466666,50.92 98.7266666,52.43 98.7266666,53.5 C98.7266666,54.55 98.1566666,56.08 96.2366666,56.08 Z M96.2366666,51.75 C95.6066666,51.75 95.2166666,52.07 95.0066666,52.42 L95.0066666,54.9 C95.2966666,55.12 95.7666666,55.25 96.1566666,55.25 C97.4766666,55.25 97.7366666,54.02 97.7366666,53.5 C97.7366666,53.06 97.5466666,51.75 96.2366666,51.75 Z" id="By-AppSharp" fill="#4A4A4A" opacity="0.300000012"></path>
                        </g>
                    </g>
                </g>
            </g>
        </g>
    </g>
</svg>