<?xml version="1.0" encoding="UTF-8"?>
<svg width="8px" height="8px" viewBox="0 0 8 8" version="1.1" xmlns="http://www.w3.org/2000/svg" xmlns:xlink="http://www.w3.org/1999/xlink">
    <!-- Generator: Sketch 50.2 (55047) - http://www.bohemiancoding.com/sketch -->
    <title>Combined Shape</title>
    <desc>Created with Sketch.</desc>
    <defs></defs>
    <g id="landing" stroke="none" stroke-width="1" fill="none" fill-rule="evenodd" opacity="0.5">
        <g id="v3" transform="translate(-1416.000000, -2571.000000)" fill="#FFFFFF" fill-rule="nonzero">
            <g id="footer" transform="translate(14.000000, 2563.000000)">
                <path d="M1409.6,8 C1409.82047,8 1410,8.17952756 1410,8.4 L1410,10.4 C1410,10.6204724 1409.82047,10.8 1409.6,10.8 C1409.37953,10.8 1409.2,10.6204724 1409.2,10.4 L1409.2,9.36535433 L1406.28189,12.2818898 C1406.13701,12.4267717 1405.85354,12.4188976 1405.71654,12.2818898 C1405.56063,12.1259843 1405.56063,11.8724409 1405.71654,11.7165354 L1408.63465,8.8 L1407.6,8.8 C1407.37953,8.8 1407.2,8.62047244 1407.2,8.4 C1407.2,8.17952756 1407.37953,8 1407.6,8 L1409.6,8 Z M1409.6,12.4 C1409.82047,12.4 1410,12.5795276 1410,12.8 L1410,15.6 C1410,15.8204724 1409.82047,16 1409.6,16 L1402.4,16 C1402.17953,16 1402,15.8204724 1402,15.6 L1402,8.4 C1402,8.17952756 1402.17953,8 1402.4,8 L1405.2,8 C1405.42047,8 1405.6,8.17952756 1405.6,8.4 C1405.6,8.62047244 1405.42047,8.8 1405.2,8.8 L1402.8,8.8 L1402.8,15.2 L1409.2,15.2 L1409.2,12.8 C1409.2,12.5795276 1409.37953,12.4 1409.6,12.4 Z" id="Combined-Shape"></path>
            </g>
        </g>
    </g>
</svg>