<svg version="1" xmlns="http://www.w3.org/2000/svg" width="1365.333" height="1365.333" viewBox="0 0 1024.000000 1024.000000"><path d="M699.4 2c-8.4 2.2-17.1 6.4-24 11.6-5.7 4.3-16.3 15.4-16.4 17.1 0 .6-.4 1.3-.8 1.5-1.8.7-8.2 13-12.3 23.5-2.4 6.4-4.9 18.5-5.4 26.3-.2 3-.4 5.7-.5 6-.4 1-.2 6.8.5 13.8 3.2 35.2 26.1 60 60 64.9 6.2.9 22.8.9 27.5-.1 9.3-1.9 21.3-6.9 29.8-12.7 2.4-1.6 4.5-2.9 4.7-2.9 1.4 0 17.9-16.3 21.5-21.1 5.4-7.4 11-15.9 10.5-15.9-.3 0 .5-1.9 1.9-4.3 2.9-5 7.3-17.9 8.3-24.5 1.3-9.1.6-25-1.3-30.9-1.6-4.7-7.8-17.3-8.6-17.3-.4 0-.8-.6-.8-1.3 0-1.3-7.2-9.2-12.6-13.7-11-9.3-26.4-16.1-45.6-20.1-9.5-2-28.4-1.9-36.4.1zM569.6 35.7c-.4.4-13.5 2.1-21.6 2.9-9.3.8-13.7 1.6-21.5 3.5-10.9 2.7-32.6 9.8-34.2 11.1-.7.6-1.3.8-1.3.5 0-.5-12.9 4.5-22.5 8.7-1.6.8-7.9 3.5-14 6.2-6 2.6-12.1 5.5-13.5 6.5-1.4.9-2.8 1.7-3.3 1.7-.4.1-4.2 1.9-8.5 4-44.6 22.5-82.3 49.5-93.8 67.3-1.6 2.4-3.3 4.7-3.7 5-.5.3-.9 1-.9 1.5s-.5 2-1.1 3.4c-1.3 3.2-1.7 14.7-.5 17.9 2.2 6 8.1 9.1 16.4 8.6 11.1-.7 19.9-3.2 64.9-18.9.6-.2 1.3-.4 1.7-.5.4-.1 2.7-.9 5-1.7 2.4-.9 5-1.7 5.8-1.9.8-.2 5.3-1.6 10-3s9.2-2.8 10-3c.8-.2 5.3-1.2 10-2.3 7.5-1.8 17.5-4 22-4.8.8-.2 3.8-.6 6.5-.9 2.8-.3 5.7-.8 6.5-1 1.4-.3 6-.9 17.3-2 2.6-.3 6.8-.7 9.5-1 2.6-.3 7-.7 9.7-1 2.8-.3 7-.7 9.5-1 2.5-.3 7-.7 10-1 5.2-.4 17.4-2 23-3 1.4-.2 4.1-.6 6-.9 1.9-.3 6.4-1.4 10-2.5 3.6-1.1 7-2.1 7.5-2.3 2.1-.5 8.3-4.4 11.7-7.4 7.8-6.8 12.6-23.3 12.2-41.8-.6-30-5.9-42.3-20.4-46.4-1.6-.5-24-.9-24.4-.5zM498.7 184.6c-.1.1-6.7.4-14.7.8-8 .4-16.1.9-18 1.1-8.8 1.1-11.9 1.6-17.5 2.6-3.3.6-7.1 1.3-8.5 1.5-1.4.1-5.4 1-9 1.9-3.6.9-7.3 1.8-8.2 2-.9.2-2.7.9-4 1.6-1.3.7-2.4 1.2-2.6 1.1-.8-.7-12.8 3.7-22.8 8.4-5.8 2.7-20.9 11.6-21.2 12.6-.2.4-.8.8-1.4.8-.6 0-2.4 1.1-4.2 2.5-1.7 1.4-4.9 4-7.1 5.8-6.5 5.2-19.8 18.7-25.4 25.7-2.8 3.6-5.6 7-6.1 7.7-2.5 3.1-13 19.4-15.6 24.1-1.6 2.9-3.4 6.3-4.1 7.5-.7 1.2-2.4 4.7-3.8 7.7s-2.9 6.2-3.4 7c-2.5 4.6-3.1 6.1-3.1 7.5 0 .8-.5 1.5-1 1.5-.6 0-.9.3-.8.7.2 1-.3 2.3-5.2 13.8-1.4 3.5-4.2 10.9-4.6 12.5-.2.8-2.6 8.7-5.4 17.5-2.8 8.8-5.2 17-5.5 18.2-.2 1.3-.7 2.7-1 3.3-.4.6-.8 2.3-1 3.8-.2 1.5-1.1 5.4-1.9 8.7-.9 3.3-1.7 6.9-1.9 8-.2 1.1-.7 2.7-1 3.5-.3.8-1.5 6.4-2.7 12.5-1.2 6-2.3 11.9-2.6 13-1 4.6-2.1 10.4-3.4 19-1.6 9.6-1.8 10.6-2.4 13.5-.3 1.4-.8 4.5-1 7-.3 2.5-.7 5.4-.9 6.5-.3 1.1-.8 4.7-1.2 8-.4 3.2-.8 6.6-1 7.5-.1.8-.6 3.7-.9 6.5-.4 2.7-.9 6.1-1.1 7.5-.2 1.4-.7 5.6-1 9.5-.4 3.8-.9 8.3-1.1 10-.2 1.6-.5 5.2-.8 8-.3 2.7-.8 6.8-1 9-.3 2.2-.7 7.6-1.1 12-.7 9.7-1.3 16.2-2 23.5-.3 3-.7 9.8-1 15-.3 5.2-.7 11.7-1 14.5-.5 6-1.5 24.6-2 38.2-.2 5.4-.4 9.8-.5 9.8 0 0-.3 3.8-.5 8.5s-.6 11.4-.9 15c-1.5 17.2-1.8 19.4-3 29.5-.3 2.2-.8 6.9-1.1 10.4-.4 3.6-.9 8.1-1.1 10-.3 2-.7 6.1-.9 9.1-.3 3-.7 7.5-1 10-.3 2.5-.7 6.3-.9 8.5-.2 2.2-.5 4-.6 4 0 0-.3 2.5-.5 5.5-.3 3-.6 7.1-.9 9-.2 1.9-.7 6.6-1.1 10.5-.3 3.8-.8 8-1 9.3-.2 1.3-.7 5.3-1 9-.3 3.7-.8 7.6-1 8.7-.4 1.8-1.1 7.4-2 16.5-.2 1.4-.4 2.5-.5 2.5-.1 0-.3 1.3-.5 3-.1 1.6-.6 5.7-1 9-.9 7.5-1.2 10.5-2 18-.3 3.3-.8 7.6-1.1 9.5-.9 6.3-1.2 50.4-.4 55.5.4 2.7 1.1 7.1 1.4 9.8.4 2.6 1.1 5.8 1.6 7.1.5 1.3.6 2.6.4 2.9-.3.3.2 2.1 1 4.1.8 2 1.3 3.6 1.1 3.6-.7 0 4.6 13.4 8.2 20.5 3.4 6.8 8.7 15.3 12.8 20.4 4.5 5.7 14.7 15.1 18.6 17.1 1.3.7 2.6 1.6 2.9 1.9.8 1 12 5.8 16.5 7.1 8 2.2 22.3 2.3 30.6.2 6.8-1.8 20.7-7.6 21.9-9.2.3-.3 2-1.7 3.9-3 4.5-3.1 11-9.6 14.6-14.5 1.7-2.2 3.2-4.2 3.5-4.5 2.1-2.1 8.7-16.2 10.5-22.5 3.8-12.8 4.9-29.7 3-43.3-1.6-11.5-8.1-24.7-15.7-31.8-4-3.8-13.4-10.4-14.8-10.4-.5 0-1-.4-1-.9s-1.5-1.4-3.2-2.1c-9.4-3.5-28.1-14.3-35.7-20.6-19.5-16-35.3-35.7-43.5-53.9-1-2.2-2.5-5.4-3.3-7-1.6-3.3-5.5-14.5-7.4-21.5-1.5-5.5-1.5-5.5-2.3-10.4-.4-2.1-.8-4.8-1.1-6-1.7-8.1-2.3-30.1-1-40.6 1.2-10 1.4-11.5 2.5-16.5.6-2.8 1.3-6 1.6-7.2 1-5.3 10.9-30.9 12.4-32.3.3-.3 1.6-2.5 2.9-5 2.8-5.2 8.9-14.8 10.8-17 .7-.8 2.7-3.3 4.4-5.5 12.9-17.1 38.1-36.2 59.9-45.5 4.1-1.8 8.4-3.6 9.5-4.1 2.2-.9 14.2-4.9 16.5-5.5.8-.2 4.2-1 7.6-1.8 3.4-.8 7.4-1.7 9-2 1.6-.3 4-.8 5.4-1 4.7-1 15.6-2.3 25.5-3.1 6.1-.6 35-.6 42.5-.1 3 .2 9.6.7 14.5 1.2 11.4.9 32.2 1 39.8.1 30.6-3.6 48.9-17.2 59.7-44 3.6-9 6.7-20.6 7.1-26.3.7-11.9-5.8-21.6-18.6-27.3-8.2-3.7-8.7-3.9-15.5-5.5-10.7-2.4-13.7-2.9-33.2-5.1-21.5-2.4-78.8-2.5-93.8-.1-4 .6-11.1 1.7-15.5 2.2-2.2.3-5.6 1-7.5 1.4-1.9.5-4.9 1.1-6.6 1.4-3.8.7-20.4 5.8-26.4 8.2-21.3 8.4-43.8 24.7-58 42.2-1.9 2.4-4.3 5.3-5.2 6.4-1 1.2-1.8 2.4-1.8 2.8 0 .3-.8 1.5-1.7 2.6-2.2 2.5-3.1 4-8.8 14.1-2.5 4.6-4.8 8.3-5 8.3-1.3 0 11.8-28.5 19-41.5 1.5-2.8 3.4-6.3 4.2-7.8 1.7-3.2 18.2-27.9 19.2-28.7.3-.3 2.4-2.8 4.6-5.5 9.3-11.8 22.6-25 35-34.8 4.9-4 9.7-7.7 10.6-8.2.8-.6 4.4-2.9 8-5.3 5.6-3.7 29.5-16.1 32.3-16.7.6-.1 2.2-.7 3.6-1.2 9-3.7 28-9.1 38-10.8 1.9-.3 4.2-.8 5-1 2.6-.7 19.9-2.7 21.8-2.6.6.1 2 0 3 0 5.5-.4 44.7 0 49.7.5 3.3.3 8.3.8 11 1.1 23.6 2.4 60.4 2.4 79.5 0 4.5-.6 5.9-.8 13.5-2 5.9-.9 19.2-4.6 25-6.8 2.7-1 6.4-2.4 8-3.1 8.4-3.2 21.2-12.2 28.6-19.9 10-10.5 18.9-28.5 21.5-43.4.3-1.5.9-4.4 1.4-6.3 1.1-4.3 2.3-16.5 2.3-24 .1-35.8-15.9-62.7-47.4-79.7-6.3-3.4-23.1-10.3-26.8-11-1.4-.2-2.8-.6-3.3-.9-.5-.3-1.8-.7-3.1-1-1.2-.2-3.3-.6-4.7-.9-2.2-.5-5.8-1.3-13.5-2.9-1.1-.2-4.2-.7-7-1-2.7-.4-6.8-.9-9-1.2-4.7-.6-10.1-1-25-1.8-6-.3-12.8-.8-15-1.1-8.4-.9-64.9-2.6-65.8-1.9zM275 557.4c0 .3-.4.8-1 1.1-.5.3-1 .1-1-.4 0-.6.5-1.1 1-1.1.6 0 1 .2 1 .4z"/></svg>